<?xml version="1.0" encoding="UTF-8" standalone="no" ?>
<!DOCTYPE svg PUBLIC "-//W3C//DTD SVG 1.1//EN" "http://www.w3.org/Graphics/SVG/1.1/DTD/svg11.dtd">
<svg xmlns="http://www.w3.org/2000/svg" xmlns:xlink="http://www.w3.org/1999/xlink" version="1.1" width="640" height="480" viewBox="0 0 640 480" xml:space="preserve">
<desc>Created with Fabric.js 3.6.6</desc>
<defs>
</defs>
<g transform="matrix(0.53 0 0 0.53 299.92 245.08)" id="XMLID_25_"  >
<path style="stroke: none; stroke-width: 1; stroke-dasharray: none; stroke-linecap: butt; stroke-dashoffset: 0; stroke-linejoin: miter; stroke-miterlimit: 4; fill: rgb(255,255,255); fill-rule: nonzero; opacity: 1;"  transform=" translate(-256, -256)" d="M 256 0 C 114.7 0 0 114.7 0 256 s 114.7 256 256 256 s 256 -114.7 256 -256 S 397.3 0 256 0 z M 433.3 153.6 h -75.9 c -8.5 -32.2 -19.9 -62.6 -35.1 -91 C 369.8 78.7 408.7 110.9 433.3 153.6 z M 256 52.1 c 20.9 30.3 37.9 64.5 49.3 101.5 h -98.6 C 218.1 116.6 235.1 82.5 256 52.1 z M 57.8 307.2 C 54 291.1 51.2 274 51.2 256 s 2.8 -35.1 6.6 -51.2 h 86.3 c -1.9 17.1 -3.8 34.1 -3.8 51.2 c 0 17.1 1.9 34.1 3.8 51.2 H 57.8 z M 78.7 358.4 h 75.9 c 8.5 32.2 19.9 62.6 35.1 91 C 142.2 433.3 103.3 401.1 78.7 358.4 z M 154.5 153.6 H 78.7 c 24.7 -42.7 63.5 -74.9 110.9 -91 C 174.5 91 162.1 121.4 154.5 153.6 z M 256 459.9 c -20.9 -30.3 -37.9 -64.5 -49.3 -101.5 h 97.7 C 293.9 395.4 276.9 429.5 256 459.9 z M 315.7 307.2 H 196.3 c -1.9 -17.1 -3.8 -34.1 -3.8 -51.2 s 1.9 -34.1 3.8 -51.2 h 119.5 c 1.9 17.1 3.8 34.1 3.8 51.2 C 319.5 273.1 318.6 290.1 315.7 307.2 z M 322.4 449.4 c 15.2 -28.4 27.5 -58.8 35.1 -91 h 75.9 C 408.7 401.1 369.8 433.3 322.4 449.4 z M 367.9 307.2 c 1.9 -17.1 3.8 -34.1 3.8 -51.2 s -1.9 -34.1 -3.8 -51.2 h 86.3 c 3.8 16.1 6.6 33.2 6.6 51.2 s -2.8 35.1 -6.6 51.2 H 367.9 z" stroke-linecap="round" />
</g>
</svg>